<svg xmlns="http://www.w3.org/2000/svg" viewBox="0 0 512 512" role="img" aria-label="C¬ DtX">
  <defs>
    <linearGradient id="bg" x1="0" y1="0" x2="1" y2="1">
      <stop offset="0" stop-color="#FFE3EA"/>
      <stop offset="1" stop-color="#FFB7C5"/>
    </linearGradient>
    <radialGradient id="petal" cx="35%" cy="35%" r="70%">
      <stop offset="0" stop-color="#FFF7FA"/>
      <stop offset="1" stop-color="#FFD1DC"/>
    </radialGradient>
  </defs>
  <rect width="512" height="512" rx="120" fill="url(#bg)"/>
  <g transform="translate(256 256)">
    <g opacity="0.98">
      <path d="M0,-160 C50,-160 92,-118 92,-68 C92,-18 50,24 0,24 C-50,24 -92,-18 -92,-68 C-92,-118 -50,-160 0,-160 Z" fill="url(#petal)"/>
      <path d="M160,0 C160,50 118,92 68,92 C18,92 -24,50 -24,0 C-24,-50 18,-92 68,-92 C118,-92 160,-50 160,0 Z" fill="url(#petal)" transform="rotate(72)"/>
      <path d="M160,0 C160,50 118,92 68,92 C18,92 -24,50 -24,0 C-24,-50 18,-92 68,-92 C118,-92 160,-50 160,0 Z" fill="url(#petal)" transform="rotate(144)"/>
      <path d="M160,0 C160,50 118,92 68,92 C18,92 -24,50 -24,0 C-24,-50 18,-92 68,-92 C118,-92 160,-50 160,0 Z" fill="url(#petal)" transform="rotate(216)"/>
      <path d="M160,0 C160,50 118,92 68,92 C18,92 -24,50 -24,0 C-24,-50 18,-92 68,-92 C118,-92 160,-50 160,0 Z" fill="url(#petal)" transform="rotate(288)"/>
    </g>
    <circle r="34" fill="#FF8FB2"/>
    <circle r="16" fill="#FFE9F0" opacity="0.9"/>
  </g>
</svg>

